<?xml version="1.0" encoding="utf-8"?>
<!-- Generator: Adobe Illustrator 22.1.0, SVG Export Plug-In . SVG Version: 6.00 Build 0)  -->
<svg version="1.1" id="Layer_1" xmlns="http://www.w3.org/2000/svg" xmlns:xlink="http://www.w3.org/1999/xlink" x="0px" y="0px"
	 viewBox="0 0 60 60" style="enable-background:new 0 0 60 60;" xml:space="preserve">
<style type="text/css">
	.st0{fill:#F33232;}
	.st1{fill:none;stroke:#F33232;stroke-width:1.5;stroke-linecap:round;stroke-linejoin:round;stroke-miterlimit:10;}
</style>
<g>
	<path class="st0" d="M26.3,0c-0.4,0-0.8,0.4-0.8,0.8v2.7L10,11.8c-0.2,0.1-0.4,0.4-0.4,0.7c0,0.3,0.1,0.5,0.4,0.7l6.9,4.6L10,21.3
		c0,0,0,0,0,0c0,0,0,0,0,0c-0.1,0.1-0.2,0.2-0.3,0.3c0,0,0,0,0,0c-0.1,0.1-0.1,0.2-0.1,0.4c0,0,0,0,0,0c0,0,0,0,0,0c0,0,0,0,0,0v7.7
		l-6.2-4.1c-0.2-0.2-0.6-0.2-0.8,0c-0.3,0.1-0.4,0.4-0.4,0.7v19.1c0,0.3,0.1,0.5,0.4,0.7l15.9,10.6c0.1,0.1,0.3,0.1,0.4,0.1
		c0.1,0,0.3,0,0.4-0.1c0.3-0.1,0.4-0.4,0.4-0.7v-7.7l5.8,3.9v7c0,0.4,0.4,0.8,0.8,0.8s0.8-0.4,0.8-0.8V0.8C27.1,0.4,26.7,0,26.3,0z
		 M11.9,12.6l13.6-7.2v7.8l-7.1,3.8L11.9,12.6z M25.5,14.9v6.7l-5.6-3.7L25.5,14.9z M18.3,18.7l7.2,4.8v7.6l-8.8-5.8l-4.8-3.2
		L18.3,18.7z M11.2,32.7l5.9,3.9l-5.9,3.2V32.7z M18.1,54.5L3.7,45V27.8l5.8,3.9v9.5c0,0.1,0,0.2,0.1,0.2c0,0,0,0.1,0,0.1
		c0.1,0.1,0.1,0.2,0.3,0.3l8.1,5.4V54.5z M18.1,45.3l-1.3-0.9l-4.8-3.2l6.1-3.3V45.3z M18.7,35.8l-7.5-5v-7.3l13.6,9.1L18.7,35.8z
		 M19.6,46.4v-9.3l5.8-3.1v16.3L19.6,46.4z"/>
	<path class="st1" d="M41.5,28.7"/>
	<g>
		<path class="st0" d="M46.6,19.7c-0.2,0-0.4-0.1-0.6-0.3c-3.1-3.6-7.5-5.6-12.3-5.6c-0.4,0-0.8-0.4-0.8-0.8c0-0.4,0.4-0.8,0.8-0.8
			c5.2,0,10.1,2.2,13.5,6.2c0.3,0.3,0.3,0.8-0.1,1.1C46.9,19.6,46.8,19.7,46.6,19.7z"/>
		<path class="st0" d="M33.7,54.2c-0.4,0-0.8-0.4-0.8-0.8s0.4-0.8,0.8-0.8c12.4,0,22.6-10.1,22.6-22.6S46.2,7.4,33.7,7.4
			c-0.4,0-0.8-0.4-0.8-0.8c0-0.4,0.4-0.8,0.8-0.8C47,5.8,57.9,16.7,57.9,30S47,54.2,33.7,54.2z"/>
		<path class="st0" d="M49.8,22.6c-0.2-0.4-0.7-0.5-1.1-0.3l-9.8,5.2c-0.7-0.9-1.8-1.5-3.1-1.5c-2.2,0-4,1.8-4,4s1.8,4,4,4
			c2.2,0,4-1.8,4-4c0-0.4-0.1-0.8-0.2-1.1l9.8-5.2C49.8,23.4,50,23,49.8,22.6z M35.8,32.4c-1.3,0-2.4-1.1-2.4-2.4s1.1-2.4,2.4-2.4
			c1.3,0,2.4,1.1,2.4,2.4S37.2,32.4,35.8,32.4z"/>
	</g>
</g>
</svg>
