<?xml version="1.0" encoding="utf-8"?>
<!-- Generator: Adobe Illustrator 22.1.0, SVG Export Plug-In . SVG Version: 6.00 Build 0)  -->
<svg version="1.1" id="Layer_1" xmlns="http://www.w3.org/2000/svg" xmlns:xlink="http://www.w3.org/1999/xlink" x="0px" y="0px"
	 viewBox="0 0 60 60" style="enable-background:new 0 0 60 60;" xml:space="preserve">
<style type="text/css">
	.st0{fill:#F33232;}
</style>
<g>
	<path class="st0" d="M38.2,47.9L37,46.7c-0.1-0.1-0.2-0.2-0.4-0.2h-3c0-0.3-0.1-0.6-0.2-0.9l2.1-1.1c0.2-0.1,0.3-0.3,0.3-0.5v-2.1
		c0-0.3-0.2-0.5-0.5-0.5s-0.5,0.2-0.5,0.5v1.8l-1.7,0.9c-0.4-0.8-1-1.4-1.6-1.8c0.4-0.4,0.6-0.9,0.6-1.4c0-1.1-0.9-2.1-2.1-2.1
		c-1.1,0-2.1,0.9-2.1,2.1c0,0.6,0.2,1.1,0.6,1.4c-0.7,0.4-1.2,1-1.6,1.8l-1.7-0.9v-1.8c0-0.3-0.2-0.5-0.5-0.5s-0.5,0.2-0.5,0.5V44
		c0,0.2,0.1,0.4,0.3,0.5l2.1,1.1c-0.1,0.3-0.1,0.6-0.2,0.9h-3c-0.1,0-0.3,0.1-0.4,0.2l-1.2,1.2c-0.2,0.2-0.2,0.5,0,0.7
		c0.1,0.1,0.2,0.2,0.4,0.2s0.3-0.1,0.4-0.2l1.1-1.1h2.7c0,0.3,0.1,0.7,0.2,1l-2.1,1.2c-0.2,0.1-0.3,0.3-0.3,0.4v2.1
		c0,0.3,0.2,0.5,0.5,0.5s0.5-0.2,0.5-0.5v-1.8l1.7-1c0.7,1.3,1.8,2.2,3.1,2.2c1.3,0,2.5-0.9,3.1-2.2l1.7,1v1.8
		c0,0.3,0.2,0.5,0.5,0.5s0.5-0.2,0.5-0.5v-2.1c0-0.2-0.1-0.4-0.3-0.4l-2.1-1.2c0.1-0.3,0.1-0.6,0.2-1h2.7l1.1,1.1
		c0.1,0.1,0.2,0.2,0.4,0.2s0.3-0.1,0.4-0.2C38.4,48.5,38.4,48.1,38.2,47.9z M28.9,41.4c0-0.6,0.5-1,1-1c0.6,0,1,0.5,1,1
		c0,0.6-0.5,1-1,1C29.4,42.4,28.9,42,28.9,41.4z M27.3,47.1c0-1.8,0.9-3.2,2.1-3.6v3.2l-2,1.2C27.4,47.7,27.3,47.4,27.3,47.1z
		 M30,50.7c-1,0-1.8-0.7-2.3-1.7l2.3-1.3l2.3,1.3C31.8,50,30.9,50.7,30,50.7z M30.5,46.7v-3.2c1.2,0.3,2.1,1.8,2.1,3.6
		c0,0.3,0,0.6-0.1,0.9L30.5,46.7z"/>
	<g>
		<path class="st0" d="M26.8,21.7c-0.1,0-0.2,0-0.3,0c-1.2-0.1-2.2-1.1-3.1-2.8c-0.1-0.2-0.1-0.4,0.1-0.6c0.1-0.2,0.4-0.2,0.6-0.2
			l4.9,1.6c0.2,0.1,0.3,0.2,0.3,0.4s0,0.3-0.1,0.5C29.1,20.6,28.2,21.7,26.8,21.7z M25.1,19.5c0.5,0.6,1,1,1.6,1.1
			c0.4,0,0.8-0.1,1-0.2L25.1,19.5z"/>
		<path class="st0" d="M33.1,21.7c-1.3,0-2.3-1.1-2.3-1.1c-0.1-0.1-0.2-0.3-0.1-0.5s0.2-0.3,0.3-0.4l4.9-1.6c0.2-0.1,0.4,0,0.6,0.2
			c0.1,0.2,0.2,0.4,0.1,0.6c-0.9,1.7-1.9,2.7-3.1,2.8C33.3,21.7,33.2,21.7,33.1,21.7z M32.3,20.4c0.3,0.2,0.6,0.3,1,0.2
			c0.5-0.1,1.1-0.4,1.6-1.1L32.3,20.4z M31.2,20.2L31.2,20.2L31.2,20.2z"/>
	</g>
	<path class="st0" d="M51.5,34.3c0-1-0.8-1.8-1.8-1.8H10.3c-1,0-1.8,0.8-1.8,1.9l5.2,23.9c0,1,0.8,1.7,1.8,1.7h29
		c1,0,1.8-0.8,1.8-1.7l5.2-23.8L51.5,34.3z M44.8,58.1l0,0.1c0,0.1-0.1,0.3-0.3,0.3h-29c-0.1,0-0.3-0.1-0.3-0.3L10,34.3
		c0-0.1,0.1-0.2,0.2-0.2h39.4c0.1,0,0.2,0.1,0.2,0.2L44.8,58.1z"/>
	<path class="st0" d="M11.8,58.4l-0.3,0c-1.6,0-3-0.6-3.8-1.7c-0.8-1-1-2.3-0.7-3.7L9,44.4l0,0c0-0.1,0-0.1,0-0.2
		c0-0.4-0.3-0.8-0.8-0.8c-0.4,0-0.7,0.3-0.7,0.6l0,0l-2.1,8.8c-0.4,1.9-0.1,3.6,1,5c1.1,1.4,3,2.3,5.1,2.3h0.3
		c0.4,0,0.8-0.3,0.8-0.8C12.5,58.8,12.2,58.4,11.8,58.4z"/>
	<path class="st0" d="M48.2,58.4l0.3,0c1.6,0,3-0.6,3.8-1.7c0.8-1,1-2.3,0.7-3.7L51,44.4l0,0c0-0.1,0-0.1,0-0.2
		c0-0.4,0.3-0.8,0.8-0.8c0.4,0,0.7,0.3,0.7,0.6l0,0l2.1,8.8c0.4,1.9,0.1,3.6-1,5c-1.1,1.4-3,2.3-5.1,2.3h-0.3
		c-0.4,0-0.8-0.3-0.8-0.8C47.5,58.8,47.8,58.4,48.2,58.4z"/>
	<path class="st0" d="M44.9,21.9c0.9-3.1-1.8-7.9-4.4-12.2C37.9,5.5,34.1,0,30,0c-4,0-7.7,5.2-10.5,9.7c-2.8,4.5-5.4,9.2-4.5,12.2
		c0.6,2.2,2.7,4.7,5.5,6.7c-1,0.1-2.6,0.5-3.8,0.9c0,0,0,0,0,0c-0.3,0.1-0.5,0.4-0.5,0.7c0,0.4,0.3,0.8,0.8,0.8c0.1,0,0.2,0,0.2,0
		c2.1-0.7,4.1-1,5.4-1h0.2c2.5,1.4,5,2.1,7.3,2.1s4.8-0.7,7.3-2.1h0.2c1.2,0,3.4,0.3,5.5,1c0,0,0.2,0,0.2,0c0.4,0,0.8-0.3,0.8-0.8
		c0-0.3-0.2-0.6-0.5-0.7c0,0,0,0,0,0c-1.5-0.5-3.1-0.8-3.9-0.9C42.2,26.6,44.3,24.1,44.9,21.9z M30,30.8c-2.6,0-8-4.8-8-9.1
		c0-4.2,0-6.3,0.9-7.2s3-0.9,7.2-0.9s6.3,0,7.2,0.9c0.9,0.9,0.9,3,0.9,7.2C38,26.2,32.3,30.8,30,30.8z M36.8,28.4
		c-0.3,0.2-0.7,0.4-1,0.5c-0.3,0.2,3.8-2.7,3.8-7.3c0-9.2-0.4-9.6-9.6-9.6s-9.6,0.4-9.6,9.6c0,4.5,4.1,7.5,3.8,7.3
		c-0.3-0.2-0.7-0.4-1-0.5c-3.3-1.9-6-4.7-6.6-7v0c-0.7-2.4,1.9-6.9,4.3-10.9c2.4-3.9,5.9-9,9.2-9c3.3,0,6.8,5.1,9.2,9
		c2.6,4.3,5,8.5,4.3,10.9C42.8,23.8,40.1,26.6,36.8,28.4z"/>
</g>
</svg>
