<?xml version="1.0" encoding="utf-8"?>
<!-- Generator: Adobe Illustrator 22.1.0, SVG Export Plug-In . SVG Version: 6.00 Build 0)  -->
<svg version="1.1" id="Layer_1" xmlns="http://www.w3.org/2000/svg" xmlns:xlink="http://www.w3.org/1999/xlink" x="0px" y="0px"
	 viewBox="0 0 60 60" style="enable-background:new 0 0 60 60;" xml:space="preserve">
<style type="text/css">
	.st0{fill:#734FC1;}
</style>
<g>
	<path class="st0" d="M30,42.8c1.1,0,2-0.8,2-2V27.1c0-1.1-0.8-2-2-2s-2,0.8-2,2v13.6C28,42,28.9,42.8,30,42.8z"/>
	<path class="st0" d="M30,21.2c1.1,0,2-0.8,2-2l0,0c0-1.1-0.8-2-2-2s-2,0.8-2,2l0,0C28,20.4,28.9,21.2,30,21.2z"/>
</g>
<path class="st0" d="M30,0C13.5,0,0,13.5,0,30s13.5,30,30,30s30-13.5,30-30S46.5,0,30,0z M30,56.7c-14.7,0-26.7-12-26.7-26.7
	S15.3,3.3,30,3.3s26.7,12,26.7,26.7S44.7,56.7,30,56.7z"/>
</svg>
