<?xml version="1.0" encoding="utf-8"?>
<!-- Generator: Adobe Illustrator 22.1.0, SVG Export Plug-In . SVG Version: 6.00 Build 0)  -->
<svg version="1.1" id="Layer_1" xmlns="http://www.w3.org/2000/svg" xmlns:xlink="http://www.w3.org/1999/xlink" x="0px" y="0px"
	 viewBox="0 0 60 60" style="enable-background:new 0 0 60 60;" xml:space="preserve">
<style type="text/css">
	.st0{fill:#F33232;}
</style>
<path class="st0" d="M54.7,44.7c-0.4,0-0.8,0.3-0.8,0.7c-0.3,7.3-6.3,13-13.5,13c-7.5,0-13.5-6.1-13.5-13.5s6.1-13.5,13.5-13.5
	c4.3,0,8.2,2,10.8,5.4L38.6,49.3l-5-5c-0.3-0.3-0.8-0.3-1.1,0c-0.3,0.3-0.3,0.8,0,1.1L38,51c0.2,0.2,0.4,0.2,0.6,0.2
	s0.4-0.1,0.6-0.2l16.3-16.3c0.3-0.3,0.3-0.8,0-1.1c-0.3-0.3-0.8-0.3-1.1,0l-2,2c-1.3-1.6-2.8-2.9-4.6-3.9v-3.8
	c0-1.6-1.3-2.9-2.9-2.9h-5.4V13.4C39.5,6,33.5,0,26,0S12.6,6,12.6,13.4V25H7.2c-1.6,0-2.9,1.3-2.9,2.9v29.2c0,1.6,1.3,2.9,2.9,2.9
	h33.1c8.1,0,14.7-6.4,15.1-14.5C55.5,45.1,55.1,44.7,54.7,44.7z M14.2,13.4c0-6.5,5.3-11.9,11.9-11.9s11.9,5.3,11.9,11.9V25H14.2
	V13.4z M7.2,58.4c-0.7,0-1.3-0.6-1.3-1.3V27.9c0-0.7,0.6-1.3,1.3-1.3h5.4h26.9h5.4c0.7,0,1.3,0.6,1.3,1.3v3
	c-1.8-0.7-3.8-1.2-5.8-1.2c-8.3,0-15.1,6.8-15.1,15.1c0,5.9,3.5,11.1,8.5,13.5H7.2z"/>
</svg>
