<?xml version="1.0" encoding="utf-8"?>
<!-- Generator: Adobe Illustrator 22.0.1, SVG Export Plug-In . SVG Version: 6.00 Build 0)  -->
<svg version="1.1" id="Layer_1" xmlns="http://www.w3.org/2000/svg" xmlns:xlink="http://www.w3.org/1999/xlink" x="0px" y="0px"
	 viewBox="0 0 100 100" style="enable-background:new 0 0 100 100;" xml:space="preserve">
<style type="text/css">
	.st0{fill:#FFFFFF;}
</style>
<title>send</title>
<desc>Created with Sketch.</desc>
<g>
	<path id="path-1" class="st0" d="M50,0c27.6,0,50,22.4,50,50s-22.4,50-50,50S0,77.6,0,50S22.4,0,50,0z M47.1,62.8
		c0.5,0,1-0.2,1.3-0.6l2.7-3l5.3,3.7c0.3,0.2,0.7,0.3,1.1,0.3c0.2,0,0.5-0.1,0.7-0.2c0.6-0.2,1-0.8,1.2-1.4l5.3-24.9
		c0.1-0.4-0.1-0.9-0.4-1.2c-0.3-0.3-0.8-0.4-1.2-0.2L33.8,48.1c-0.7,0.3-1.2,1.1-1.2,1.9c0.1,0.8,0.6,1.5,1.3,1.7l7.3,2.2
		c0.6,0.2,1.3-0.2,1.5-0.8c0.2-0.6-0.2-1.3-0.8-1.5l-6-1.9l22.7-10L45.3,53.3l-0.1,0.1c-0.1,0.1-0.1,0.1-0.1,0.1
		c0,0.1-0.1,0.1-0.1,0.1s-0.1,0.1-0.1,0.1s0,0.1-0.1,0.1c0,0.1-0.1,0.1-0.1,0.2c0,0.1,0,0.1,0,0.1s0,0.1,0,0.2c0,0,0,0,0,0.1
		l0.4,6.7c0.1,0.8,0.5,1.4,1.2,1.7C46.7,62.7,46.9,62.8,47.1,62.8z M47.6,59.6l-0.2-3l1.7,1.2L47.6,59.6z M57.3,60.5L48,54.1
		l13.5-13.5L57.3,60.5z"/>
</g>
</svg>
