<?xml version="1.0" encoding="UTF-8"?>
<svg width="297px" height="115px" viewBox="0 0 297 115" version="1.1" xmlns="http://www.w3.org/2000/svg" xmlns:xlink="http://www.w3.org/1999/xlink">
    <!-- Generator: Sketch 48.2 (47327) - http://www.bohemiancoding.com/sketch -->
    <title>logo</title>
    <desc>Created with Sketch.</desc>
    <defs></defs>
    <g id="Chairman-login-#1" stroke="none" stroke-width="1" fill="none" fill-rule="evenodd" transform="translate(-932.000000, -200.000000)">
        <g id="logo" transform="translate(932.000000, 200.000000)" fill="#000000">
            <path d="M113.648,69.04 C111.517323,69.04 109.885339,69.5386617 108.752,70.536 C107.618661,71.4880048 106.621338,73.1426549 105.76,75.5 L91.616,113.648 L89.712,113.648 L74.616,73.936 C73.3919939,70.6719837 70.8533526,69.04 67,69.04 L67,67 L83.524,67 L83.524,69.04 L80.328,69.04 C78.4239905,69.04 77.472,69.7199932 77.472,71.08 C77.472,71.5786692 77.675998,72.3493281 78.084,73.392 L91.344,108.48 L103.176,76.52 C104.264005,73.6186522 104.808,71.7146712 104.808,70.808 C104.808,69.6293274 103.221349,69.04 100.048,69.04 L98.552,69.04 L98.552,67 L113.648,67 L113.648,69.04 Z M145.132,97.396 C145.132,102.11069 143.908012,106.077317 141.46,109.296 C138.830654,112.832018 135.385355,114.6 131.124,114.6 C126.817312,114.6 123.349346,112.832018 120.72,109.296 C118.271988,106.031984 117.048,102.04269 117.048,97.328 C117.048,92.6133098 118.271988,88.6240163 120.72,85.36 C123.349346,81.8693159 126.817312,80.124 131.124,80.124 C135.385355,80.124 138.830654,81.8919823 141.46,85.428 C143.908012,88.6920163 145.132,92.6813098 145.132,97.396 Z M140.984,97.396 C140.984,93.4973138 140.304007,90.1653472 138.944,87.4 C137.175991,83.8639823 134.569351,82.096 131.124,82.096 C127.633316,82.096 125.004009,83.8639823 123.236,87.4 C121.875993,90.1200136 121.196,93.4293138 121.196,97.328 C121.196,101.226686 121.875993,104.558653 123.236,107.324 C125.004009,110.814684 127.633316,112.56 131.124,112.56 C134.569351,112.56 137.175991,110.814684 138.944,107.324 C140.304007,104.603986 140.984,101.294686 140.984,97.396 Z M170.088,102.428 C169.45333,110.588041 166.824023,114.668 162.2,114.668 C157.213308,114.668 154.72,111.381366 154.72,104.808 L154.72,82.98 L148.532,82.98 L148.532,80.94 C151.342681,80.94 153.337327,79.9200102 154.516,77.88 C155.649339,76.021324 156.216,72.9613546 156.216,68.7 L158.12,68.7 L158.12,80.94 L167.844,80.94 L167.844,82.98 L158.12,82.98 L158.12,105.216 C158.12,109.658689 159.683984,111.88 162.812,111.88 C165.804015,111.88 167.730662,108.729365 168.592,102.428 L170.088,102.428 Z M201.504,105.284 C198.557319,111.494698 194.160029,114.6 188.312,114.6 C183.869311,114.6 180.265347,112.922683 177.5,109.568 C174.82532,106.349317 173.488,102.292024 173.488,97.396 C173.488,92.5906426 174.711988,88.5786828 177.16,85.36 C179.789346,81.8693159 183.370644,80.124 187.904,80.124 C192.120021,80.124 195.497321,81.9373152 198.036,85.564 C200.348012,88.8280163 201.504,92.8173098 201.504,97.532 L177.636,97.532 C177.636,101.838688 178.633323,105.261321 180.628,107.8 C182.713344,110.47468 185.637315,111.812 189.4,111.812 C193.661355,111.812 197.242652,109.364024 200.144,104.468 L201.504,105.284 Z M197.356,92.908 C197.356,90.5053213 196.472009,88.1480116 194.704,85.836 C192.709323,83.2519871 190.37468,81.96 187.7,81.96 C184.753319,81.96 182.282677,83.4333186 180.288,86.38 C178.519991,89.0093465 177.613334,92.0466494 177.568,95.492 L194.296,95.492 C195.384005,95.492 196.154664,95.3333349 196.608,95.016 C197.106669,94.6986651 197.356,93.9960054 197.356,92.908 Z M228.636,104.808 C228.636,108.072016 227.593344,110.565325 225.508,112.288 C223.694658,113.874675 221.292015,114.668 218.3,114.668 C214.401314,114.668 211.250679,113.285347 208.848,110.52 L206.808,114.192 L205.584,114.192 L205.584,101.34 L207.08,101.34 C208.168005,105.238686 209.482659,108.026658 211.024,109.704 C212.837342,111.74401 215.330651,112.764 218.504,112.764 C220.453343,112.764 222.13066,112.265338 223.536,111.268 C225.122675,110.134661 225.916,108.61601 225.916,106.712 C225.916,103.40265 223.55869,100.932008 218.844,99.3 C213.902642,97.5773247 211.046671,96.512002 210.276,96.104 C207.147984,94.3359912 205.584,91.9333485 205.584,88.896 C205.584,86.22132 206.467991,84.0906746 208.236,82.504 C210.004009,80.9173254 212.157321,80.124 214.696,80.124 C217.733349,80.124 220.566654,81.2119891 223.196,83.388 L224.896,80.464 L226.12,80.464 L226.12,91.684 L224.828,91.684 C223.830662,88.5559844 222.674673,86.2666739 221.36,84.816 C219.682658,83.0479912 217.484014,82.164 214.764,82.164 C210.366645,82.164 208.168,84.067981 208.168,87.876 C208.168,90.0520109 210.026648,91.8426596 213.744,93.248 C215.874677,93.9280034 218.005323,94.630663 220.136,95.356 C222.765346,96.3533383 224.737327,97.4639939 226.052,98.688 C227.774675,100.320008 228.636,102.359988 228.636,104.808 Z" id="Votes"></path>
            <path d="M30.1386719,25.1621094 C29.85091,29.1399938 28.3825002,32.2714729 25.7333984,34.5566406 C23.0842967,36.8418083 19.5931206,37.984375 15.2597656,37.984375 C10.5201586,37.984375 6.79200577,36.3890133 4.07519531,33.1982422 C1.35838485,30.007471 0,25.627632 0,20.0585938 L0,17.7988281 C0,14.2441229 0.62629582,11.1126438 1.87890625,8.40429688 C3.13151668,5.69595 4.92153784,3.6181713 7.24902344,2.17089844 C9.57650903,0.723625576 12.2805836,0 15.3613281,0 C19.6269745,0 23.063138,1.1425667 25.6699219,3.42773438 C28.2767057,5.71290205 29.7832011,8.92055227 30.1894531,13.0507813 L22.5722656,13.0507813 C22.3860668,10.6640506 21.7216854,8.9332736 20.5791016,7.85839844 C19.4365177,6.78352327 17.6972773,6.24609375 15.3613281,6.24609375 C12.8222529,6.24609375 10.9222068,7.15591538 9.66113281,8.97558594 C8.4000588,10.7952565 7.75260434,13.6178194 7.71875,17.4433594 L7.71875,20.2363281 C7.71875,24.2311398 8.32388718,27.1510324 9.53417969,28.9960938 C10.7444722,30.8411551 12.6529818,31.7636719 15.2597656,31.7636719 C17.612642,31.7636719 19.3688093,31.2262424 20.5283203,30.1513672 C21.6878313,29.076492 22.3522127,27.4134227 22.5214844,25.1621094 L30.1386719,25.1621094 Z M71.5078125,19.8300781 C71.5078125,23.4694192 70.8645898,26.6601425 69.578125,29.4023438 C68.2916602,32.144545 66.4508583,34.2604092 64.0556641,35.75 C61.6604698,37.2395908 58.914078,37.984375 55.8164063,37.984375 C52.7525888,37.984375 50.0188922,37.2480542 47.6152344,35.7753906 C45.2115765,34.302727 43.349616,32.1995579 42.0292969,29.4658203 C40.7089778,26.7320827 40.0403647,23.5879084 40.0234375,20.0332031 L40.0234375,18.2050781 C40.0234375,14.565737 40.6793554,11.3623185 41.9912109,8.59472656 C43.3030665,5.8271346 45.1565635,3.70280688 47.5517578,2.22167969 C49.9469521,0.74055249 52.6848804,0 55.765625,0 C58.8463696,0 61.5842979,0.74055249 63.9794922,2.22167969 C66.3746865,3.70280688 68.2281835,5.8271346 69.5400391,8.59472656 C70.8518946,11.3623185 71.5078125,14.5572736 71.5078125,18.1796875 L71.5078125,19.8300781 Z M63.7890625,18.1542969 C63.7890625,14.2779754 63.095059,11.3326924 61.7070312,9.31835938 C60.3190035,7.30402639 58.3385545,6.296875 55.765625,6.296875 C53.2096226,6.296875 51.2376371,7.2913312 49.8496094,9.28027344 C48.4615816,11.2692157 47.7591147,14.1848766 47.7421875,18.0273438 L47.7421875,19.8300781 C47.7421875,23.6048366 48.436191,26.5331927 49.8242187,28.6152344 C51.2122465,30.697276 53.2096224,31.7382812 55.8164062,31.7382812 C58.3724086,31.7382812 60.3359306,30.7353616 61.7070312,28.7294922 C63.0781319,26.7236228 63.7721353,23.7994984 63.7890625,19.9570312 L63.7890625,18.1542969 Z M111.023438,0.5078125 L111.023438,24.8574219 C111.023438,28.903015 109.758151,32.1022018 107.227539,34.4550781 C104.696927,36.8079545 101.239605,37.984375 96.8554688,37.984375 C92.5390409,37.984375 89.1113408,36.8418083 86.5722656,34.5566406 C84.0331904,32.2714729 82.7382815,29.1315304 82.6875,25.1367188 L82.6875,0.5078125 L90.3046875,0.5078125 L90.3046875,24.9082031 C90.3046875,27.3287881 90.8844343,29.0934189 92.0439453,30.2021484 C93.2034563,31.3108779 94.8072814,31.8652344 96.8554688,31.8652344 C101.138042,31.8652344 103.313151,29.6139548 103.380859,25.1113281 L103.380859,0.5078125 L111.023438,0.5078125 Z M153.332031,37.4765625 L145.714844,37.4765625 L130.886719,13.1523438 L130.886719,37.4765625 L123.269531,37.4765625 L123.269531,0.5078125 L130.886719,0.5078125 L145.740234,24.8828125 L145.740234,0.5078125 L153.332031,0.5078125 L153.332031,37.4765625 Z M193.076172,6.67773438 L181.751953,6.67773438 L181.751953,37.4765625 L174.134766,37.4765625 L174.134766,6.67773438 L162.962891,6.67773438 L162.962891,0.5078125 L193.076172,0.5078125 L193.076172,6.67773438 Z M211.517578,37.4765625 L203.900391,37.4765625 L203.900391,0.5078125 L211.517578,0.5078125 L211.517578,37.4765625 Z M254.638672,37.4765625 L247.021484,37.4765625 L232.193359,13.1523438 L232.193359,37.4765625 L224.576172,37.4765625 L224.576172,0.5078125 L232.193359,0.5078125 L247.046875,24.8828125 L247.046875,0.5078125 L254.638672,0.5078125 L254.638672,37.4765625 Z M296.541016,32.8046875 C295.169915,34.4466228 293.231783,35.7203731 290.726563,36.6259766 C288.221342,37.53158 285.445328,37.984375 282.398438,37.984375 C279.199203,37.984375 276.393567,37.2861398 273.981445,35.8896484 C271.569324,34.4931571 269.707363,32.4661591 268.395508,29.8085938 C267.083652,27.1510284 266.410807,24.0280127 266.376953,20.4394531 L266.376953,17.9257813 C266.376953,14.2356586 266.999017,11.0407036 268.243164,8.34082031 C269.487311,5.64093702 271.281564,3.57585351 273.625977,2.14550781 C275.970389,0.715162119 278.716781,0 281.865234,0 C286.249371,0 289.677071,1.04523694 292.148438,3.13574219 C294.619804,5.22624743 296.083982,8.26886023 296.541016,12.2636719 L289.126953,12.2636719 C288.78841,10.1477759 288.039394,8.59896324 286.879883,7.6171875 C285.720372,6.63541176 284.12501,6.14453125 282.09375,6.14453125 C279.503893,6.14453125 277.531908,7.11782881 276.177734,9.06445313 C274.823561,11.0110774 274.138021,13.9055797 274.121094,17.7480469 L274.121094,20.109375 C274.121094,23.9856965 274.857415,26.9140526 276.330078,28.8945313 C277.802742,30.8750099 279.960923,31.8652344 282.804688,31.8652344 C285.665379,31.8652344 287.705072,31.2558655 288.923828,30.0371094 L288.923828,23.6640625 L281.992188,23.6640625 L281.992188,18.0527344 L296.541016,18.0527344 L296.541016,32.8046875 Z" id="COUNTING"></path>
        </g>
    </g>
</svg>